<?xml version="1.0" encoding="UTF-8" standalone="no"?>
<!DOCTYPE svg PUBLIC "-//W3C//DTD SVG 1.1//EN"
 "http://www.w3.org/Graphics/SVG/1.1/DTD/svg11.dtd">
<!-- Generated by graphviz version 2.39.20150313.0445 (20150313.0445)
 -->
<!-- Title: %3 Pages: 1 -->
<svg width="355pt" height="108pt"
 viewBox="0.00 0.00 355.29 108.00" xmlns="http://www.w3.org/2000/svg" xmlns:xlink="http://www.w3.org/1999/xlink">
<g id="graph0" class="graph" transform="scale(1 1) rotate(0) translate(4 104)">
<title>%3</title>
<g id="clust1" class="cluster"><title>cluster_301</title>
<polygon fill="transparent" stroke="#cccccc" stroke-dasharray="5,2" points="8,-8 8,-92 339.288,-92 339.288,-8 8,-8"/>
<text text-anchor="middle" x="96.3872" y="-76.8" font-family="Times,serif" font-size="14.00">say (@0.000, 0.095, +0.102)</text>
</g>
<!-- 300 -->
<g id="node1" class="node"><title>300</title>
<path fill="#e0ffe0" stroke="black" d="M100,-17C100,-17 239.288,-17 239.288,-17 245.288,-17 251.288,-23 251.288,-29 251.288,-29 251.288,-49 251.288,-49 251.288,-55 245.288,-61 239.288,-61 239.288,-61 100,-61 100,-61 94,-61 88,-55 88,-49 88,-49 88,-29 88,-29 88,-23 94,-17 100,-17"/>
<text text-anchor="start" x="96" y="-45.8" font-family="Times,serif" font-size="14.00">greeting</text>
<polyline fill="none" stroke="black" points="88,-39 251.288,-39 "/>
<text text-anchor="end" x="140.393" y="-23.8" font-family="Times,serif" font-size="14.00">@0.021</text>
<polyline fill="none" stroke="black" points="148.393,-17 148.393,-39 "/>
<text text-anchor="end" x="187.893" y="-23.8" font-family="Times,serif" font-size="14.00">0.029</text>
<polyline fill="none" stroke="black" points="195.893,-17 195.893,-39 "/>
<text text-anchor="end" x="243.288" y="-23.8" font-family="Times,serif" font-size="14.00">+0.031</text>
</g>
<!-- sink_301 -->
<g id="node3" class="node"><title>sink_301</title>
<ellipse fill="#e0ffe0" stroke="black" cx="309.288" cy="-39" rx="18" ry="18"/>
<ellipse fill="none" stroke="black" cx="309.288" cy="-39" rx="22" ry="22"/>
<text text-anchor="middle" x="309.288" y="-34.8" font-family="Times,serif" font-size="14.00"> </text>
</g>
<!-- 300&#45;&gt;sink_301 -->
<g id="edge2" class="edge"><title>300&#45;&gt;sink_301</title>
<path fill="none" stroke="black" d="M251.683,-39C260.663,-39 269.364,-39 277.168,-39"/>
<polygon fill="black" stroke="black" points="277.195,-42.5001 287.195,-39 277.195,-35.5001 277.195,-42.5001"/>
</g>
<!-- source_301 -->
<g id="node2" class="node"><title>source_301</title>
<ellipse fill="lightgrey" stroke="black" cx="34" cy="-39" rx="18" ry="18"/>
<text text-anchor="middle" x="34" y="-34.8" font-family="Times,serif" font-size="14.00"> </text>
</g>
<!-- source_301&#45;&gt;300 -->
<g id="edge1" class="edge"><title>source_301&#45;&gt;300</title>
<path fill="none" stroke="black" d="M52.0125,-39C59.1797,-39 68.0008,-39 77.563,-39"/>
<polygon fill="black" stroke="black" points="77.7578,-42.5001 87.7577,-39 77.7577,-35.5001 77.7578,-42.5001"/>
</g>
</g>
</svg>
