<?xml version="1.0" encoding="UTF-8" standalone="no"?>
<!DOCTYPE svg PUBLIC "-//W3C//DTD SVG 1.1//EN"
 "http://www.w3.org/Graphics/SVG/1.1/DTD/svg11.dtd">
<!-- Generated by graphviz version 2.39.20150313.0445 (20150313.0445)
 -->
<!-- Title: %3 Pages: 1 -->
<svg width="555pt" height="108pt"
 viewBox="0.00 0.00 554.58 108.00" xmlns="http://www.w3.org/2000/svg" xmlns:xlink="http://www.w3.org/1999/xlink">
<g id="graph0" class="graph" transform="scale(1 1) rotate(0) translate(4 104)">
<title>%3</title>
<g id="clust1" class="cluster"><title>cluster_402</title>
<polygon fill="transparent" stroke="#cccccc" stroke-dasharray="5,2" points="8,-8 8,-92 538.576,-92 538.576,-8 8,-8"/>
<text text-anchor="middle" x="157.436" y="-76.8" font-family="Times,serif" font-size="14.00">shipProductAterPayment (@0.000, 0.019, +0.174)</text>
</g>
<!-- 400 -->
<g id="node1" class="node"><title>400</title>
<path fill="#e0ffe0" stroke="black" d="M100,-17C100,-17 239.288,-17 239.288,-17 245.288,-17 251.288,-23 251.288,-29 251.288,-29 251.288,-49 251.288,-49 251.288,-55 245.288,-61 239.288,-61 239.288,-61 100,-61 100,-61 94,-61 88,-55 88,-49 88,-49 88,-29 88,-29 88,-23 94,-17 100,-17"/>
<text text-anchor="start" x="96" y="-45.8" font-family="Times,serif" font-size="14.00">processPayment</text>
<polyline fill="none" stroke="black" points="88,-39 251.288,-39 "/>
<text text-anchor="end" x="140.393" y="-23.8" font-family="Times,serif" font-size="14.00">@0.095</text>
<polyline fill="none" stroke="black" points="148.393,-17 148.393,-39 "/>
<text text-anchor="end" x="187.893" y="-23.8" font-family="Times,serif" font-size="14.00">0.015</text>
<polyline fill="none" stroke="black" points="195.893,-17 195.893,-39 "/>
<text text-anchor="end" x="243.288" y="-23.8" font-family="Times,serif" font-size="14.00">+0.017</text>
</g>
<!-- 401 -->
<g id="node2" class="node"><title>401</title>
<path fill="#e0ffe0" stroke="black" d="M299.288,-17C299.288,-17 438.576,-17 438.576,-17 444.576,-17 450.576,-23 450.576,-29 450.576,-29 450.576,-49 450.576,-49 450.576,-55 444.576,-61 438.576,-61 438.576,-61 299.288,-61 299.288,-61 293.288,-61 287.288,-55 287.288,-49 287.288,-49 287.288,-29 287.288,-29 287.288,-23 293.288,-17 299.288,-17"/>
<text text-anchor="start" x="295.288" y="-45.8" font-family="Times,serif" font-size="14.00">ship</text>
<polyline fill="none" stroke="black" points="287.288,-39 450.576,-39 "/>
<text text-anchor="end" x="339.681" y="-23.8" font-family="Times,serif" font-size="14.00">@0.147</text>
<polyline fill="none" stroke="black" points="347.681,-17 347.681,-39 "/>
<text text-anchor="end" x="387.181" y="-23.8" font-family="Times,serif" font-size="14.00">0.005</text>
<polyline fill="none" stroke="black" points="395.181,-17 395.181,-39 "/>
<text text-anchor="end" x="442.576" y="-23.8" font-family="Times,serif" font-size="14.00">+0.006</text>
</g>
<!-- 400&#45;&gt;401 -->
<g id="edge1" class="edge"><title>400&#45;&gt;401</title>
<path fill="none" stroke="black" d="M251.565,-39C259.884,-39 268.374,-39 276.791,-39"/>
<polygon fill="black" stroke="black" points="277.007,-42.5001 287.007,-39 277.007,-35.5001 277.007,-42.5001"/>
</g>
<!-- sink_402 -->
<g id="node4" class="node"><title>sink_402</title>
<ellipse fill="#e0ffe0" stroke="black" cx="508.576" cy="-39" rx="18" ry="18"/>
<ellipse fill="none" stroke="black" cx="508.576" cy="-39" rx="22" ry="22"/>
<text text-anchor="middle" x="508.576" y="-34.8" font-family="Times,serif" font-size="14.00"> </text>
</g>
<!-- 401&#45;&gt;sink_402 -->
<g id="edge3" class="edge"><title>401&#45;&gt;sink_402</title>
<path fill="none" stroke="black" d="M450.971,-39C459.951,-39 468.652,-39 476.456,-39"/>
<polygon fill="black" stroke="black" points="476.483,-42.5001 486.483,-39 476.483,-35.5001 476.483,-42.5001"/>
</g>
<!-- source_402 -->
<g id="node3" class="node"><title>source_402</title>
<ellipse fill="lightgrey" stroke="black" cx="34" cy="-39" rx="18" ry="18"/>
<text text-anchor="middle" x="34" y="-34.8" font-family="Times,serif" font-size="14.00"> </text>
</g>
<!-- source_402&#45;&gt;400 -->
<g id="edge2" class="edge"><title>source_402&#45;&gt;400</title>
<path fill="none" stroke="black" d="M52.0125,-39C59.1797,-39 68.0008,-39 77.563,-39"/>
<polygon fill="black" stroke="black" points="77.7578,-42.5001 87.7577,-39 77.7577,-35.5001 77.7578,-42.5001"/>
</g>
</g>
</svg>
