<?xml version="1.0" encoding="UTF-8" standalone="no"?>
<!DOCTYPE svg PUBLIC "-//W3C//DTD SVG 1.1//EN"
 "http://www.w3.org/Graphics/SVG/1.1/DTD/svg11.dtd">
<!-- Generated by graphviz version 2.39.20150313.0445 (20150313.0445)
 -->
<!-- Title: %3 Pages: 1 -->
<svg width="554pt" height="108pt"
 viewBox="0.00 0.00 553.55 108.00" xmlns="http://www.w3.org/2000/svg" xmlns:xlink="http://www.w3.org/1999/xlink">
<g id="graph0" class="graph" transform="scale(1 1) rotate(0) translate(4 104)">
<title>%3</title>
<g id="clust1" class="cluster"><title>cluster_2</title>
<polygon fill="transparent" stroke="#cccccc" stroke-dasharray="5,2" points="8,-8 8,-92 537.551,-92 537.551,-8 8,-8"/>
<text text-anchor="middle" x="101.046" y="-76.8" font-family="Times,serif" font-size="14.00">fetch (@0.000, 2.681, +8.369)</text>
</g>
<!-- 0 -->
<g id="node1" class="node"><title>0</title>
<path fill="#e0ffe0" stroke="black" d="M100,-17C100,-17 239.288,-17 239.288,-17 245.288,-17 251.288,-23 251.288,-29 251.288,-29 251.288,-49 251.288,-49 251.288,-55 245.288,-61 239.288,-61 239.288,-61 100,-61 100,-61 94,-61 88,-55 88,-49 88,-49 88,-29 88,-29 88,-23 94,-17 100,-17"/>
<text text-anchor="start" x="96" y="-45.8" font-family="Times,serif" font-size="14.00">uri</text>
<polyline fill="none" stroke="black" points="88,-39 251.288,-39 "/>
<text text-anchor="end" x="140.393" y="-23.8" font-family="Times,serif" font-size="14.00">@3.968</text>
<polyline fill="none" stroke="black" points="148.393,-17 148.393,-39 "/>
<text text-anchor="end" x="187.893" y="-23.8" font-family="Times,serif" font-size="14.00">1.962</text>
<polyline fill="none" stroke="black" points="195.893,-17 195.893,-39 "/>
<text text-anchor="end" x="243.288" y="-23.8" font-family="Times,serif" font-size="14.00">+1.985</text>
</g>
<!-- 1000 -->
<g id="node2" class="node"><title>1000</title>
<path fill="#e0ffe0" stroke="black" d="M299.288,-17C299.288,-17 437.551,-17 437.551,-17 443.551,-17 449.551,-23 449.551,-29 449.551,-29 449.551,-49 449.551,-49 449.551,-55 443.551,-61 437.551,-61 437.551,-61 299.288,-61 299.288,-61 293.288,-61 287.288,-55 287.288,-49 287.288,-49 287.288,-29 287.288,-29 287.288,-23 293.288,-17 299.288,-17"/>
<text text-anchor="start" x="295.288" y="-45.8" font-family="Times,serif" font-size="14.00">fetch</text>
<polyline fill="none" stroke="black" points="287.288,-39 449.551,-39 "/>
<text text-anchor="end" x="339.168" y="-23.8" font-family="Times,serif" font-size="14.00">@8.211</text>
<polyline fill="none" stroke="black" points="347.168,-17 347.168,-39 "/>
<text text-anchor="end" x="386.155" y="-23.8" font-family="Times,serif" font-size="14.00">0.113</text>
<polyline fill="none" stroke="black" points="394.155,-17 394.155,-39 "/>
<text text-anchor="end" x="441.551" y="-23.8" font-family="Times,serif" font-size="14.00">+0.121</text>
</g>
<!-- 0&#45;&gt;1000 -->
<g id="edge1" class="edge"><title>0&#45;&gt;1000</title>
<path fill="none" stroke="black" d="M251.354,-39C259.82,-39 268.463,-39 277.026,-39"/>
<polygon fill="black" stroke="black" points="277.027,-42.5001 287.027,-39 277.027,-35.5001 277.027,-42.5001"/>
</g>
<!-- sink_2 -->
<g id="node4" class="node"><title>sink_2</title>
<ellipse fill="#e0ffe0" stroke="black" cx="507.551" cy="-39" rx="18" ry="18"/>
<ellipse fill="none" stroke="black" cx="507.551" cy="-39" rx="22" ry="22"/>
<text text-anchor="middle" x="507.551" y="-34.8" font-family="Times,serif" font-size="14.00"> </text>
</g>
<!-- 1000&#45;&gt;sink_2 -->
<g id="edge3" class="edge"><title>1000&#45;&gt;sink_2</title>
<path fill="none" stroke="black" d="M449.755,-39C458.75,-39 467.474,-39 475.302,-39"/>
<polygon fill="black" stroke="black" points="475.363,-42.5001 485.363,-39 475.363,-35.5001 475.363,-42.5001"/>
</g>
<!-- source_2 -->
<g id="node3" class="node"><title>source_2</title>
<ellipse fill="lightgrey" stroke="black" cx="34" cy="-39" rx="18" ry="18"/>
<text text-anchor="middle" x="34" y="-34.8" font-family="Times,serif" font-size="14.00"> </text>
</g>
<!-- source_2&#45;&gt;0 -->
<g id="edge2" class="edge"><title>source_2&#45;&gt;0</title>
<path fill="none" stroke="black" d="M52.0125,-39C59.1797,-39 68.0008,-39 77.563,-39"/>
<polygon fill="black" stroke="black" points="77.7578,-42.5001 87.7577,-39 77.7577,-35.5001 77.7578,-42.5001"/>
</g>
</g>
</svg>
