<?xml version="1.0" encoding="UTF-8" standalone="no"?>
<!DOCTYPE svg PUBLIC "-//W3C//DTD SVG 1.1//EN"
 "http://www.w3.org/Graphics/SVG/1.1/DTD/svg11.dtd">
<!-- Generated by graphviz version 2.39.20150313.0445 (20150313.0445)
 -->
<!-- Title: %3 Pages: 1 -->
<svg width="641pt" height="263pt"
 viewBox="0.00 0.00 640.58 263.00" xmlns="http://www.w3.org/2000/svg" xmlns:xlink="http://www.w3.org/1999/xlink">
<g id="graph0" class="graph" transform="scale(1 1) rotate(0) translate(4 259)">
<title>%3</title>
<g id="clust1" class="cluster"><title>cluster_498</title>
<polygon fill="transparent" stroke="#cccccc" stroke-dasharray="5,2" points="8,-8 8,-247 624.576,-247 624.576,-8 8,-8"/>
<text text-anchor="middle" x="102.994" y="-231.8" font-family="Times,serif" font-size="14.00">par2 (@0.000, 0.030, +10.967)</text>
</g>
<g id="clust2" class="cluster"><title>cluster_497</title>
<polygon fill="transparent" stroke="#cccccc" stroke-dasharray="5,2" points="80,-70 80,-217 481.432,-217 481.432,-70 80,-70"/>
<text text-anchor="middle" x="217.145" y="-201.8" font-family="Times,serif" font-size="14.00">withTimeout 10 ms (@0.106, 0.100, +10.795)</text>
</g>
<!-- 496 -->
<g id="node1" class="node"><title>496</title>
<path fill="#fffacd" stroke="black" d="M378.288,-17C378.288,-17 524.576,-17 524.576,-17 530.576,-17 536.576,-23 536.576,-29 536.576,-29 536.576,-49 536.576,-49 536.576,-55 530.576,-61 524.576,-61 524.576,-61 378.288,-61 378.288,-61 372.288,-61 366.288,-55 366.288,-49 366.288,-49 366.288,-29 366.288,-29 366.288,-23 372.288,-17 378.288,-17"/>
<text text-anchor="start" x="374.288" y="-45.8" font-family="Times,serif" font-size="14.00">GET http://bing.com</text>
<polyline fill="none" stroke="black" points="366.288,-39 536.576,-39 "/>
<text text-anchor="end" x="418.681" y="-23.8" font-family="Times,serif" font-size="14.00">@0.545</text>
<polyline fill="none" stroke="black" points="426.681,-17 426.681,-39 "/>
<text text-anchor="end" x="466.181" y="-23.8" font-family="Times,serif" font-size="14.00">0.098</text>
<polyline fill="none" stroke="black" points="474.181,-17 474.181,-39 "/>
<text text-anchor="end" x="528.576" y="-23.8" font-family="Times,serif" font-size="14.00">+10.442</text>
</g>
<!-- sink_498 -->
<g id="node3" class="node"><title>sink_498</title>
<ellipse fill="#ffe0e0" stroke="black" cx="594.576" cy="-70" rx="18" ry="18"/>
<ellipse fill="none" stroke="black" cx="594.576" cy="-70" rx="22" ry="22"/>
<text text-anchor="middle" x="594.576" y="-65.8" font-family="Times,serif" font-size="14.00"> </text>
</g>
<!-- 496&#45;&gt;sink_498 -->
<g id="edge4" class="edge"><title>496&#45;&gt;sink_498</title>
<path fill="none" stroke="black" stroke-dasharray="5,2" d="M536.767,-57.4805C546.092,-59.5 555.093,-61.4494 563.105,-63.1844"/>
<polygon fill="black" stroke="black" points="562.496,-66.6337 573.01,-65.3296 563.978,-59.7923 562.496,-66.6337"/>
</g>
<!-- source_498 -->
<g id="node2" class="node"><title>source_498</title>
<ellipse fill="lightgrey" stroke="black" cx="34" cy="-80" rx="18" ry="18"/>
<text text-anchor="middle" x="34" y="-75.8" font-family="Times,serif" font-size="14.00"> </text>
</g>
<!-- source_498&#45;&gt;496 -->
<g id="edge3" class="edge"><title>source_498&#45;&gt;496</title>
<path fill="none" stroke="black" d="M51.2476,-73.7525C59.786,-70.9176 70.3159,-67.8023 80,-66 172.58,-48.7702 280.046,-42.4062 355.491,-40.1211"/>
<polygon fill="black" stroke="black" points="356.023,-43.6075 365.919,-39.825 355.824,-36.6103 356.023,-43.6075"/>
</g>
<!-- source_497 -->
<g id="node6" class="node"><title>source_497</title>
<ellipse fill="lightgrey" stroke="black" cx="106" cy="-101" rx="18" ry="18"/>
<text text-anchor="middle" x="106" y="-96.8" font-family="Times,serif" font-size="14.00"> </text>
</g>
<!-- source_498&#45;&gt;source_497 -->
<g id="edge5" class="edge"><title>source_498&#45;&gt;source_497</title>
<path fill="none" stroke="black" d="M51.4292,-85.0835C59.5935,-87.4648 69.5127,-90.3579 78.6434,-93.021"/>
<polygon fill="black" stroke="black" points="77.9017,-96.4504 88.4818,-95.8905 79.8618,-89.7304 77.9017,-96.4504"/>
</g>
<!-- 495 -->
<g id="node4" class="node"><title>495</title>
<path fill="#fffacd" stroke="black" d="M172,-79C172,-79 318.288,-79 318.288,-79 324.288,-79 330.288,-85 330.288,-91 330.288,-91 330.288,-111 330.288,-111 330.288,-117 324.288,-123 318.288,-123 318.288,-123 172,-123 172,-123 166,-123 160,-117 160,-111 160,-111 160,-91 160,-91 160,-85 166,-79 172,-79"/>
<text text-anchor="start" x="168" y="-107.8" font-family="Times,serif" font-size="14.00">GET http://google.com</text>
<polyline fill="none" stroke="black" points="160,-101 330.288,-101 "/>
<text text-anchor="end" x="212.393" y="-85.8" font-family="Times,serif" font-size="14.00">@0.267</text>
<polyline fill="none" stroke="black" points="220.393,-79 220.393,-101 "/>
<text text-anchor="end" x="259.893" y="-85.8" font-family="Times,serif" font-size="14.00">0.173</text>
<polyline fill="none" stroke="black" points="267.893,-79 267.893,-101 "/>
<text text-anchor="end" x="322.288" y="-85.8" font-family="Times,serif" font-size="14.00">+10.683</text>
</g>
<!-- sink_497 -->
<g id="node7" class="node"><title>sink_497</title>
<ellipse fill="#ffe0e0" stroke="black" cx="451.432" cy="-102" rx="18" ry="18"/>
<ellipse fill="none" stroke="black" cx="451.432" cy="-102" rx="22" ry="22"/>
<text text-anchor="middle" x="451.432" y="-97.8" font-family="Times,serif" font-size="14.00"> </text>
</g>
<!-- 495&#45;&gt;sink_497 -->
<g id="edge2" class="edge"><title>495&#45;&gt;sink_497</title>
<path fill="none" stroke="black" stroke-dasharray="5,2" d="M330.538,-101.414C361.682,-101.565 395.051,-101.727 418.824,-101.842"/>
<polygon fill="black" stroke="black" points="419.012,-105.343 429.029,-101.891 419.046,-98.3429 419.012,-105.343"/>
</g>
<!-- 100000 -->
<g id="node5" class="node"><title>100000</title>
<path fill="#e0ffe0" stroke="black" d="M172,-142C172,-142 318.288,-142 318.288,-142 324.288,-142 330.288,-148 330.288,-154 330.288,-154 330.288,-174 330.288,-174 330.288,-180 324.288,-186 318.288,-186 318.288,-186 172,-186 172,-186 166,-186 160,-180 160,-174 160,-174 160,-154 160,-154 160,-148 166,-142 172,-142"/>
<text text-anchor="start" x="168" y="-170.8" font-family="Times,serif" font-size="14.00">timeoutTimer</text>
<polyline fill="none" stroke="black" points="160,-164 330.288,-164 "/>
<text text-anchor="end" x="219.393" y="-148.8" font-family="Times,serif" font-size="14.00">@10.864</text>
<polyline fill="none" stroke="black" points="227.393,-142 227.393,-164 "/>
<text text-anchor="end" x="266.893" y="-148.8" font-family="Times,serif" font-size="14.00">0.141</text>
<polyline fill="none" stroke="black" points="274.893,-142 274.893,-164 "/>
<text text-anchor="end" x="322.288" y="-148.8" font-family="Times,serif" font-size="14.00">+0.146</text>
</g>
<!-- 100000&#45;&gt;sink_497 -->
<g id="edge8" class="edge"><title>100000&#45;&gt;sink_497</title>
<path fill="none" stroke="black" d="M318.454,-141.967C353.574,-131.411 393.742,-119.339 420.657,-111.249"/>
<polygon fill="black" stroke="black" points="421.717,-114.586 430.286,-108.355 419.702,-107.882 421.717,-114.586"/>
</g>
<!-- source_497&#45;&gt;495 -->
<g id="edge1" class="edge"><title>source_497&#45;&gt;495</title>
<path fill="none" stroke="black" d="M124.191,-101C131.353,-101 140.157,-101 149.72,-101"/>
<polygon fill="black" stroke="black" points="149.924,-104.5 159.924,-101 149.924,-97.5001 149.924,-104.5"/>
</g>
<!-- source_497&#45;&gt;100000 -->
<g id="edge7" class="edge"><title>source_497&#45;&gt;100000</title>
<path fill="none" stroke="black" d="M121.178,-111.028C131.777,-117.77 146.407,-126.566 160,-133 163.577,-134.693 167.273,-136.353 171.03,-137.969"/>
<polygon fill="black" stroke="black" points="169.886,-141.284 180.463,-141.893 172.574,-134.82 169.886,-141.284"/>
</g>
<!-- sink_497&#45;&gt;sink_498 -->
<g id="edge6" class="edge"><title>sink_497&#45;&gt;sink_498</title>
<path fill="none" stroke="black" d="M473.173,-97.1399C497.168,-91.7757 535.999,-83.095 563.269,-76.9986"/>
<polygon fill="black" stroke="black" points="564.105,-80.3984 573.1,-74.801 562.577,-73.567 564.105,-80.3984"/>
</g>
</g>
</svg>
