<?xml version="1.0" encoding="UTF-8" standalone="no"?>
<!DOCTYPE svg PUBLIC "-//W3C//DTD SVG 1.1//EN"
 "http://www.w3.org/Graphics/SVG/1.1/DTD/svg11.dtd">
<!-- Generated by graphviz version 2.39.20150313.0445 (20150313.0445)
 -->
<!-- Title: %3 Pages: 1 -->
<svg width="934pt" height="330pt"
 viewBox="0.00 0.00 933.86 330.00" xmlns="http://www.w3.org/2000/svg" xmlns:xlink="http://www.w3.org/1999/xlink">
<g id="graph0" class="graph" transform="scale(1 1) rotate(0) translate(4 326)">
<title>%3</title>
<g id="clust1" class="cluster"><title>cluster_705</title>
<polygon fill="transparent" stroke="#cccccc" stroke-dasharray="5,2" points="8,-8 8,-314 917.864,-314 917.864,-8 8,-8"/>
<text text-anchor="middle" x="102.994" y="-298.8" font-family="Times,serif" font-size="14.00">par2 (@0.000, 0.084, +10.806)</text>
</g>
<g id="clust2" class="cluster"><title>cluster_703</title>
<polygon fill="transparent" stroke="#cccccc" stroke-dasharray="5,2" points="80,-16 80,-192 837.864,-192 837.864,-16 80,-16"/>
<text text-anchor="middle" x="217.145" y="-176.8" font-family="Times,serif" font-size="14.00">withTimeout 10 ms (@0.187, 0.171, +10.277)</text>
</g>
<g id="clust3" class="cluster"><title>cluster_702</title>
<polygon fill="transparent" stroke="#cccccc" stroke-dasharray="5,2" points="219.144,-78 219.144,-162 694.72,-162 694.72,-78 219.144,-78"/>
<text text-anchor="middle" x="328.128" y="-146.8" font-family="Times,serif" font-size="14.00">shareable (@0.403, 0.271, +10.189)</text>
</g>
<g id="clust4" class="cluster"><title>cluster_704</title>
<polygon fill="transparent" stroke="#cccccc" stroke-dasharray="5,2" points="80,-200 80,-284 837.864,-284 837.864,-200 80,-200"/>
<text text-anchor="middle" x="188.984" y="-268.8" font-family="Times,serif" font-size="14.00">shareable (@0.693, 0.077, +10.201)</text>
</g>
<!-- source_705 -->
<g id="node1" class="node"><title>source_705</title>
<ellipse fill="lightgrey" stroke="black" cx="34" cy="-168" rx="18" ry="18"/>
<text text-anchor="middle" x="34" y="-163.8" font-family="Times,serif" font-size="14.00"> </text>
</g>
<!-- source_703 -->
<g id="node4" class="node"><title>source_703</title>
<ellipse fill="lightgrey" stroke="black" cx="106" cy="-109" rx="18" ry="18"/>
<text text-anchor="middle" x="106" y="-104.8" font-family="Times,serif" font-size="14.00"> </text>
</g>
<!-- source_705&#45;&gt;source_703 -->
<g id="edge7" class="edge"><title>source_705&#45;&gt;source_703</title>
<path fill="none" stroke="black" d="M48.2249,-156.343C58.3821,-148.02 72.2438,-136.661 83.8434,-127.156"/>
<polygon fill="black" stroke="black" points="86.2883,-129.678 91.8047,-120.632 81.8515,-124.263 86.2883,-129.678"/>
</g>
<!-- source_704 -->
<g id="node10" class="node"><title>source_704</title>
<ellipse fill="lightgrey" stroke="black" cx="106" cy="-228" rx="18" ry="18"/>
<text text-anchor="middle" x="106" y="-223.8" font-family="Times,serif" font-size="14.00"> </text>
</g>
<!-- source_705&#45;&gt;source_704 -->
<g id="edge9" class="edge"><title>source_705&#45;&gt;source_704</title>
<path fill="none" stroke="black" d="M47.8823,-179.569C58.2413,-188.201 72.5895,-200.158 84.4373,-210.031"/>
<polygon fill="black" stroke="black" points="82.2374,-212.754 92.1603,-216.467 86.7187,-207.376 82.2374,-212.754"/>
</g>
<!-- sink_705 -->
<g id="node2" class="node"><title>sink_705</title>
<ellipse fill="#ffe0e0" stroke="black" cx="887.864" cy="-170" rx="18" ry="18"/>
<ellipse fill="none" stroke="black" cx="887.864" cy="-170" rx="22" ry="22"/>
<text text-anchor="middle" x="887.864" y="-165.8" font-family="Times,serif" font-size="14.00"> </text>
</g>
<!-- 101000 -->
<g id="node3" class="node"><title>101000</title>
<path fill="#e0ffe0" stroke="black" d="M591.576,-25C591.576,-25 737.864,-25 737.864,-25 743.864,-25 749.864,-31 749.864,-37 749.864,-37 749.864,-57 749.864,-57 749.864,-63 743.864,-69 737.864,-69 737.864,-69 591.576,-69 591.576,-69 585.576,-69 579.576,-63 579.576,-57 579.576,-57 579.576,-37 579.576,-37 579.576,-31 585.576,-25 591.576,-25"/>
<text text-anchor="start" x="587.576" y="-53.8" font-family="Times,serif" font-size="14.00">timeoutTimer</text>
<polyline fill="none" stroke="black" points="579.576,-47 749.864,-47 "/>
<text text-anchor="end" x="638.969" y="-31.8" font-family="Times,serif" font-size="14.00">@10.296</text>
<polyline fill="none" stroke="black" points="646.969,-25 646.969,-47 "/>
<text text-anchor="end" x="686.469" y="-31.8" font-family="Times,serif" font-size="14.00">0.662</text>
<polyline fill="none" stroke="black" points="694.469,-25 694.469,-47 "/>
<text text-anchor="end" x="741.864" y="-31.8" font-family="Times,serif" font-size="14.00">+0.665</text>
</g>
<!-- sink_703 -->
<g id="node5" class="node"><title>sink_703</title>
<ellipse fill="#ffe0e0" stroke="black" cx="807.864" cy="-110" rx="18" ry="18"/>
<ellipse fill="none" stroke="black" cx="807.864" cy="-110" rx="22" ry="22"/>
<text text-anchor="middle" x="807.864" y="-105.8" font-family="Times,serif" font-size="14.00"> </text>
</g>
<!-- 101000&#45;&gt;sink_703 -->
<g id="edge12" class="edge"><title>101000&#45;&gt;sink_703</title>
<path fill="none" stroke="black" d="M738.538,-69.1395C742.405,-70.6929 746.202,-72.3145 749.864,-74 760.471,-78.8808 771.503,-85.3364 781.063,-91.4319"/>
<polygon fill="black" stroke="black" points="779.433,-94.5484 789.715,-97.1026 783.27,-88.6937 779.433,-94.5484"/>
</g>
<!-- source_703&#45;&gt;101000 -->
<g id="edge11" class="edge"><title>source_703&#45;&gt;101000</title>
<path fill="none" stroke="black" d="M120.052,-96.9318C130.37,-88.849 145.125,-78.8347 160,-74 296.894,-29.5055 465.585,-30.9467 569.116,-37.724"/>
<polygon fill="black" stroke="black" points="569.023,-41.2257 579.239,-38.4173 569.501,-34.2421 569.023,-41.2257"/>
</g>
<!-- source_702 -->
<g id="node7" class="node"><title>source_702</title>
<ellipse fill="lightgrey" stroke="black" cx="245.144" cy="-109" rx="18" ry="18"/>
<text text-anchor="middle" x="245.144" y="-104.8" font-family="Times,serif" font-size="14.00"> </text>
</g>
<!-- source_703&#45;&gt;source_702 -->
<g id="edge5" class="edge"><title>source_703&#45;&gt;source_702</title>
<path fill="none" stroke="black" d="M124.191,-109C147.732,-109 189.009,-109 216.709,-109"/>
<polygon fill="black" stroke="black" points="216.949,-112.5 226.949,-109 216.949,-105.5 216.949,-112.5"/>
</g>
<!-- sink_703&#45;&gt;sink_705 -->
<g id="edge8" class="edge"><title>sink_703&#45;&gt;sink_705</title>
<path fill="none" stroke="black" d="M825.619,-123.316C836.287,-131.317 850.05,-141.64 861.921,-150.543"/>
<polygon fill="black" stroke="black" points="860.059,-153.521 870.159,-156.721 864.259,-147.921 860.059,-153.521"/>
</g>
<!-- 700 -->
<g id="node6" class="node"><title>700</title>
<path fill="#e0ffe0" stroke="black" d="M378.288,-87C378.288,-87 531.576,-87 531.576,-87 537.576,-87 543.576,-93 543.576,-99 543.576,-99 543.576,-119 543.576,-119 543.576,-125 537.576,-131 531.576,-131 531.576,-131 378.288,-131 378.288,-131 372.288,-131 366.288,-125 366.288,-119 366.288,-119 366.288,-99 366.288,-99 366.288,-93 372.288,-87 378.288,-87"/>
<text text-anchor="start" x="374.288" y="-115.8" font-family="Times,serif" font-size="14.00">GET http://google.com</text>
<polyline fill="none" stroke="black" points="366.288,-109 543.576,-109 "/>
<text text-anchor="end" x="418.681" y="-93.8" font-family="Times,serif" font-size="14.00">@0.862</text>
<polyline fill="none" stroke="black" points="426.681,-87 426.681,-109 "/>
<text text-anchor="end" x="466.181" y="-93.8" font-family="Times,serif" font-size="14.00">0.255</text>
<polyline fill="none" stroke="black" points="474.181,-87 474.181,-109 "/>
<text text-anchor="end" x="535.576" y="-93.8" font-family="Times,serif" font-size="14.00">+299.771</text>
</g>
<!-- sink_702 -->
<g id="node8" class="node"><title>sink_702</title>
<ellipse fill="#fffacd" stroke="black" cx="664.72" cy="-110" rx="18" ry="18"/>
<ellipse fill="none" stroke="black" cx="664.72" cy="-110" rx="22" ry="22"/>
<text text-anchor="middle" x="664.72" y="-105.8" font-family="Times,serif" font-size="14.00"> </text>
</g>
<!-- 700&#45;&gt;sink_702 -->
<g id="edge2" class="edge"><title>700&#45;&gt;sink_702</title>
<path fill="none" stroke="black" stroke-dasharray="5,2" d="M543.597,-109.423C575.017,-109.572 608.428,-109.732 632.183,-109.845"/>
<polygon fill="black" stroke="black" points="632.36,-113.346 642.376,-109.893 632.393,-106.346 632.36,-113.346"/>
</g>
<!-- source_702&#45;&gt;700 -->
<g id="edge1" class="edge"><title>source_702&#45;&gt;700</title>
<path fill="none" stroke="black" d="M263.394,-109C284.353,-109 320.397,-109 355.602,-109"/>
<polygon fill="black" stroke="black" points="355.988,-112.5 365.988,-109 355.988,-105.5 355.988,-112.5"/>
</g>
<!-- sink_702&#45;&gt;sink_703 -->
<g id="edge6" class="edge"><title>sink_702&#45;&gt;sink_703</title>
<path fill="none" stroke="black" stroke-dasharray="5,2" d="M686.773,-110C710.451,-110 748.311,-110 775.394,-110"/>
<polygon fill="black" stroke="black" points="775.551,-113.5 785.551,-110 775.551,-106.5 775.551,-113.5"/>
</g>
<!-- 701 -->
<g id="node9" class="node"><title>701</title>
<path fill="#e0ffe0" stroke="black" d="M172,-209C172,-209 318.288,-209 318.288,-209 324.288,-209 330.288,-215 330.288,-221 330.288,-221 330.288,-241 330.288,-241 330.288,-247 324.288,-253 318.288,-253 318.288,-253 172,-253 172,-253 166,-253 160,-247 160,-241 160,-241 160,-221 160,-221 160,-215 166,-209 172,-209"/>
<text text-anchor="start" x="168" y="-237.8" font-family="Times,serif" font-size="14.00">GET http://bing.com</text>
<polyline fill="none" stroke="black" points="160,-231 330.288,-231 "/>
<text text-anchor="end" x="212.393" y="-215.8" font-family="Times,serif" font-size="14.00">@1.148</text>
<polyline fill="none" stroke="black" points="220.393,-209 220.393,-231 "/>
<text text-anchor="end" x="259.893" y="-215.8" font-family="Times,serif" font-size="14.00">0.433</text>
<polyline fill="none" stroke="black" points="267.893,-209 267.893,-231 "/>
<text text-anchor="end" x="322.288" y="-215.8" font-family="Times,serif" font-size="14.00">+46.688</text>
</g>
<!-- sink_704 -->
<g id="node11" class="node"><title>sink_704</title>
<ellipse fill="#fffacd" stroke="black" cx="807.864" cy="-230" rx="18" ry="18"/>
<ellipse fill="none" stroke="black" cx="807.864" cy="-230" rx="22" ry="22"/>
<text text-anchor="middle" x="807.864" y="-225.8" font-family="Times,serif" font-size="14.00"> </text>
</g>
<!-- 701&#45;&gt;sink_704 -->
<g id="edge4" class="edge"><title>701&#45;&gt;sink_704</title>
<path fill="none" stroke="black" stroke-dasharray="5,2" d="M330.303,-230.849C457.295,-230.623 690.473,-230.209 775.636,-230.057"/>
<polygon fill="black" stroke="black" points="775.738,-233.557 785.732,-230.039 775.725,-226.557 775.738,-233.557"/>
</g>
<!-- source_704&#45;&gt;701 -->
<g id="edge3" class="edge"><title>source_704&#45;&gt;701</title>
<path fill="none" stroke="black" d="M124.191,-228.392C131.353,-228.547 140.157,-228.736 149.72,-228.943"/>
<polygon fill="black" stroke="black" points="149.851,-232.446 159.924,-229.163 150.002,-225.448 149.851,-232.446"/>
</g>
<!-- sink_704&#45;&gt;sink_705 -->
<g id="edge10" class="edge"><title>sink_704&#45;&gt;sink_705</title>
<path fill="none" stroke="black" stroke-dasharray="5,2" d="M825.619,-216.684C836.287,-208.683 850.05,-198.36 861.921,-189.457"/>
<polygon fill="black" stroke="black" points="864.259,-192.079 870.159,-183.279 860.059,-186.479 864.259,-192.079"/>
</g>
</g>
</svg>
