<?xml version="1.0" encoding="UTF-8" standalone="no"?>
<!DOCTYPE svg PUBLIC "-//W3C//DTD SVG 1.1//EN"
 "http://www.w3.org/Graphics/SVG/1.1/DTD/svg11.dtd">
<!-- Generated by graphviz version 2.39.20150313.0445 (20150313.0445)
 -->
<!-- Title: %3 Pages: 1 -->
<svg width="355pt" height="108pt"
 viewBox="0.00 0.00 354.78 108.00" xmlns="http://www.w3.org/2000/svg" xmlns:xlink="http://www.w3.org/1999/xlink">
<g id="graph0" class="graph" transform="scale(1 1) rotate(0) translate(4 104)">
<title>%3</title>
<g id="clust1" class="cluster"><title>cluster_301</title>
<polygon fill="transparent" stroke="#cccccc" stroke-dasharray="5,2" points="8,-8 8,-92 338.775,-92 338.775,-8 8,-8"/>
<text text-anchor="middle" x="94.832" y="-76.8" font-family="Times,serif" font-size="14.00">try (@0.000, 0.052, +0.055)</text>
</g>
<!-- 300 -->
<g id="node1" class="node"><title>300</title>
<path fill="#e0ffe0" stroke="black" d="M100,-17C100,-17 238.775,-17 238.775,-17 244.775,-17 250.775,-23 250.775,-29 250.775,-29 250.775,-49 250.775,-49 250.775,-55 244.775,-61 238.775,-61 238.775,-61 100,-61 100,-61 94,-61 88,-55 88,-49 88,-49 88,-29 88,-29 88,-23 94,-17 100,-17"/>
<text text-anchor="start" x="96" y="-45.8" font-family="Times,serif" font-size="14.00">greeting</text>
<polyline fill="none" stroke="black" points="88,-39 250.775,-39 "/>
<text text-anchor="end" x="139.88" y="-23.8" font-family="Times,serif" font-size="14.00">@0.011</text>
<polyline fill="none" stroke="black" points="147.88,-17 147.88,-39 "/>
<text text-anchor="end" x="187.38" y="-23.8" font-family="Times,serif" font-size="14.00">0.019</text>
<polyline fill="none" stroke="black" points="195.38,-17 195.38,-39 "/>
<text text-anchor="end" x="242.775" y="-23.8" font-family="Times,serif" font-size="14.00">+0.021</text>
</g>
<!-- sink_301 -->
<g id="node3" class="node"><title>sink_301</title>
<ellipse fill="#e0ffe0" stroke="black" cx="308.775" cy="-39" rx="18" ry="18"/>
<ellipse fill="none" stroke="black" cx="308.775" cy="-39" rx="22" ry="22"/>
<text text-anchor="middle" x="308.775" y="-34.8" font-family="Times,serif" font-size="14.00"> </text>
</g>
<!-- 300&#45;&gt;sink_301 -->
<g id="edge2" class="edge"><title>300&#45;&gt;sink_301</title>
<path fill="none" stroke="black" d="M250.873,-39C259.884,-39 268.624,-39 276.467,-39"/>
<polygon fill="black" stroke="black" points="276.547,-42.5001 286.547,-39 276.547,-35.5001 276.547,-42.5001"/>
</g>
<!-- source_301 -->
<g id="node2" class="node"><title>source_301</title>
<ellipse fill="lightgrey" stroke="black" cx="34" cy="-39" rx="18" ry="18"/>
<text text-anchor="middle" x="34" y="-34.8" font-family="Times,serif" font-size="14.00"> </text>
</g>
<!-- source_301&#45;&gt;300 -->
<g id="edge1" class="edge"><title>source_301&#45;&gt;300</title>
<path fill="none" stroke="black" d="M52.259,-39C59.4373,-39 68.2463,-39 77.7816,-39"/>
<polygon fill="black" stroke="black" points="77.9435,-42.5001 87.9434,-39 77.9434,-35.5001 77.9435,-42.5001"/>
</g>
</g>
</svg>
