<?xml version="1.0" encoding="UTF-8" standalone="no"?>
<!DOCTYPE svg PUBLIC "-//W3C//DTD SVG 1.1//EN"
 "http://www.w3.org/Graphics/SVG/1.1/DTD/svg11.dtd">
<!-- Generated by graphviz version 2.39.20150313.0445 (20150313.0445)
 -->
<!-- Title: %3 Pages: 1 -->
<svg width="1064pt" height="146pt"
 viewBox="0.00 0.00 1064.35 146.00" xmlns="http://www.w3.org/2000/svg" xmlns:xlink="http://www.w3.org/1999/xlink">
<g id="graph0" class="graph" transform="scale(1 1) rotate(0) translate(4 142)">
<title>%3</title>
<g id="clust1" class="cluster"><title>cluster_3</title>
<polygon fill="transparent" stroke="#cccccc" stroke-dasharray="5,2" points="8,-8 8,-130 1048.35,-130 1048.35,-8 8,-8"/>
<text text-anchor="middle" x="128.919" y="-114.8" font-family="Times,serif" font-size="14.00">withSideEffect (@0.000, 3.194, +9.855)</text>
</g>
<g id="clust2" class="cluster"><title>cluster_2</title>
<polygon fill="transparent" stroke="#cccccc" stroke-dasharray="5,2" points="80,-16 80,-100 610.576,-100 610.576,-16 80,-16"/>
<text text-anchor="middle" x="173.046" y="-84.8" font-family="Times,serif" font-size="14.00">fetch (@4.124, 1.088, +5.721)</text>
</g>
<g id="clust3" class="cluster"><title>cluster_1000</title>
<polygon fill="transparent" stroke="#cccccc" stroke-dasharray="5,2" points="630.576,-16 630.576,-100 968.352,-100 968.352,-16 630.576,-16"/>
<text text-anchor="middle" x="763.465" y="-84.8" font-family="Times,serif" font-size="14.00">update memcache (@10.762, 0.387, +0.520)</text>
</g>
<!-- source_3 -->
<g id="node1" class="node"><title>source_3</title>
<ellipse fill="lightgrey" stroke="black" cx="34" cy="-47" rx="18" ry="18"/>
<text text-anchor="middle" x="34" y="-42.8" font-family="Times,serif" font-size="14.00"> </text>
</g>
<!-- source_2 -->
<g id="node5" class="node"><title>source_2</title>
<ellipse fill="lightgrey" stroke="black" cx="106" cy="-47" rx="18" ry="18"/>
<text text-anchor="middle" x="106" y="-42.8" font-family="Times,serif" font-size="14.00"> </text>
</g>
<!-- source_3&#45;&gt;source_2 -->
<g id="edge4" class="edge"><title>source_3&#45;&gt;source_2</title>
<path fill="none" stroke="black" d="M52.1686,-47C59.869,-47 69.0257,-47 77.5834,-47"/>
<polygon fill="black" stroke="black" points="77.5868,-50.5001 87.5867,-47 77.5867,-43.5001 77.5868,-50.5001"/>
</g>
<!-- sink_3 -->
<g id="node2" class="node"><title>sink_3</title>
<ellipse fill="#e0ffe0" stroke="black" cx="1018.35" cy="-47" rx="18" ry="18"/>
<ellipse fill="none" stroke="black" cx="1018.35" cy="-47" rx="22" ry="22"/>
<text text-anchor="middle" x="1018.35" y="-42.8" font-family="Times,serif" font-size="14.00"> </text>
</g>
<!-- 0 -->
<g id="node3" class="node"><title>0</title>
<path fill="#e0ffe0" stroke="black" d="M172,-25C172,-25 311.288,-25 311.288,-25 317.288,-25 323.288,-31 323.288,-37 323.288,-37 323.288,-57 323.288,-57 323.288,-63 317.288,-69 311.288,-69 311.288,-69 172,-69 172,-69 166,-69 160,-63 160,-57 160,-57 160,-37 160,-37 160,-31 166,-25 172,-25"/>
<text text-anchor="start" x="168" y="-53.8" font-family="Times,serif" font-size="14.00">id</text>
<polyline fill="none" stroke="black" points="160,-47 323.288,-47 "/>
<text text-anchor="end" x="212.393" y="-31.8" font-family="Times,serif" font-size="14.00">@5.803</text>
<polyline fill="none" stroke="black" points="220.393,-25 220.393,-47 "/>
<text text-anchor="end" x="259.893" y="-31.8" font-family="Times,serif" font-size="14.00">1.573</text>
<polyline fill="none" stroke="black" points="267.893,-25 267.893,-47 "/>
<text text-anchor="end" x="315.288" y="-31.8" font-family="Times,serif" font-size="14.00">+1.592</text>
</g>
<!-- 2000 -->
<g id="node4" class="node"><title>2000</title>
<path fill="#e0ffe0" stroke="black" d="M371.288,-25C371.288,-25 510.576,-25 510.576,-25 516.576,-25 522.576,-31 522.576,-37 522.576,-37 522.576,-57 522.576,-57 522.576,-63 516.576,-69 510.576,-69 510.576,-69 371.288,-69 371.288,-69 365.288,-69 359.288,-63 359.288,-57 359.288,-57 359.288,-37 359.288,-37 359.288,-31 365.288,-25 371.288,-25"/>
<text text-anchor="start" x="367.288" y="-53.8" font-family="Times,serif" font-size="14.00">fetch</text>
<polyline fill="none" stroke="black" points="359.288,-47 522.576,-47 "/>
<text text-anchor="end" x="411.681" y="-31.8" font-family="Times,serif" font-size="14.00">@9.712</text>
<polyline fill="none" stroke="black" points="419.681,-25 419.681,-47 "/>
<text text-anchor="end" x="459.181" y="-31.8" font-family="Times,serif" font-size="14.00">0.100</text>
<polyline fill="none" stroke="black" points="467.181,-25 467.181,-47 "/>
<text text-anchor="end" x="514.576" y="-31.8" font-family="Times,serif" font-size="14.00">+0.105</text>
</g>
<!-- 0&#45;&gt;2000 -->
<g id="edge1" class="edge"><title>0&#45;&gt;2000</title>
<path fill="none" stroke="black" d="M323.565,-47C331.884,-47 340.374,-47 348.791,-47"/>
<polygon fill="black" stroke="black" points="349.007,-50.5001 359.007,-47 349.007,-43.5001 349.007,-50.5001"/>
</g>
<!-- sink_2 -->
<g id="node6" class="node"><title>sink_2</title>
<ellipse fill="#e0ffe0" stroke="black" cx="580.576" cy="-47" rx="18" ry="18"/>
<ellipse fill="none" stroke="black" cx="580.576" cy="-47" rx="22" ry="22"/>
<text text-anchor="middle" x="580.576" y="-42.8" font-family="Times,serif" font-size="14.00"> </text>
</g>
<!-- 2000&#45;&gt;sink_2 -->
<g id="edge6" class="edge"><title>2000&#45;&gt;sink_2</title>
<path fill="none" stroke="black" d="M522.971,-47C531.951,-47 540.652,-47 548.456,-47"/>
<polygon fill="black" stroke="black" points="548.483,-50.5001 558.483,-47 548.483,-43.5001 548.483,-50.5001"/>
</g>
<!-- source_2&#45;&gt;0 -->
<g id="edge3" class="edge"><title>source_2&#45;&gt;0</title>
<path fill="none" stroke="black" d="M124.012,-47C131.18,-47 140.001,-47 149.563,-47"/>
<polygon fill="black" stroke="black" points="149.758,-50.5001 159.758,-47 149.758,-43.5001 149.758,-50.5001"/>
</g>
<!-- source_1000 -->
<g id="node8" class="node"><title>source_1000</title>
<ellipse fill="lightgrey" stroke="black" cx="656.576" cy="-47" rx="18" ry="18"/>
<text text-anchor="middle" x="656.576" y="-42.8" font-family="Times,serif" font-size="14.00"> </text>
</g>
<!-- sink_2&#45;&gt;source_1000 -->
<g id="edge2" class="edge"><title>sink_2&#45;&gt;source_1000</title>
<path fill="none" stroke="black" d="M602.968,-47C610.849,-47 619.815,-47 628.128,-47"/>
<polygon fill="black" stroke="black" points="628.179,-50.5001 638.179,-47 628.179,-43.5001 628.179,-50.5001"/>
</g>
<!-- 3000 -->
<g id="node7" class="node"><title>3000</title>
<path fill="#e0ffe0" stroke="black" d="M722.576,-25C722.576,-25 868.352,-25 868.352,-25 874.352,-25 880.352,-31 880.352,-37 880.352,-37 880.352,-57 880.352,-57 880.352,-63 874.352,-69 868.352,-69 868.352,-69 722.576,-69 722.576,-69 716.576,-69 710.576,-63 710.576,-57 710.576,-57 710.576,-37 710.576,-37 710.576,-31 716.576,-25 722.576,-25"/>
<text text-anchor="start" x="718.576" y="-53.8" font-family="Times,serif" font-size="14.00">updateMemcache</text>
<polyline fill="none" stroke="black" points="710.576,-47 880.352,-47 "/>
<text text-anchor="end" x="769.456" y="-31.8" font-family="Times,serif" font-size="14.00">@11.209</text>
<polyline fill="none" stroke="black" points="777.456,-25 777.456,-47 "/>
<text text-anchor="end" x="816.956" y="-31.8" font-family="Times,serif" font-size="14.00">0.044</text>
<polyline fill="none" stroke="black" points="824.956,-25 824.956,-47 "/>
<text text-anchor="end" x="872.352" y="-31.8" font-family="Times,serif" font-size="14.00">+0.060</text>
</g>
<!-- sink_1000 -->
<g id="node9" class="node"><title>sink_1000</title>
<ellipse fill="#e0ffe0" stroke="black" cx="938.352" cy="-47" rx="18" ry="18"/>
<ellipse fill="none" stroke="black" cx="938.352" cy="-47" rx="22" ry="22"/>
<text text-anchor="middle" x="938.352" y="-42.8" font-family="Times,serif" font-size="14.00"> </text>
</g>
<!-- 3000&#45;&gt;sink_1000 -->
<g id="edge8" class="edge"><title>3000&#45;&gt;sink_1000</title>
<path fill="none" stroke="black" d="M880.646,-47C889.685,-47 898.42,-47 906.241,-47"/>
<polygon fill="black" stroke="black" points="906.282,-50.5001 916.282,-47 906.282,-43.5001 906.282,-50.5001"/>
</g>
<!-- source_1000&#45;&gt;3000 -->
<g id="edge7" class="edge"><title>source_1000&#45;&gt;3000</title>
<path fill="none" stroke="black" d="M674.733,-47C681.882,-47 690.67,-47 700.216,-47"/>
<polygon fill="black" stroke="black" points="700.401,-50.5001 710.401,-47 700.401,-43.5001 700.401,-50.5001"/>
</g>
<!-- sink_1000&#45;&gt;sink_3 -->
<g id="edge5" class="edge"><title>sink_1000&#45;&gt;sink_3</title>
<path fill="none" stroke="black" d="M960.636,-47C968.525,-47 977.565,-47 986.114,-47"/>
<polygon fill="black" stroke="black" points="986.187,-50.5001 996.187,-47 986.187,-43.5001 986.187,-50.5001"/>
</g>
</g>
</svg>
