<?xml version="1.0" encoding="UTF-8" standalone="no"?>
<!DOCTYPE svg PUBLIC "-//W3C//DTD SVG 1.1//EN"
 "http://www.w3.org/Graphics/SVG/1.1/DTD/svg11.dtd">
<!-- Generated by graphviz version 2.39.20150313.0445 (20150313.0445)
 -->
<!-- Title: %3 Pages: 1 -->
<svg width="362pt" height="171pt"
 viewBox="0.00 0.00 362.29 171.00" xmlns="http://www.w3.org/2000/svg" xmlns:xlink="http://www.w3.org/1999/xlink">
<g id="graph0" class="graph" transform="scale(1 1) rotate(0) translate(4 167)">
<title>%3</title>
<g id="clust1" class="cluster"><title>cluster_301</title>
<polygon fill="transparent" stroke="#cccccc" stroke-dasharray="5,2" points="8,-8 8,-155 346.288,-155 346.288,-8 8,-8"/>
<text text-anchor="middle" x="145.145" y="-139.8" font-family="Times,serif" font-size="14.00">withTimeout 10 ms (@0.000, 0.087, +10.619)</text>
</g>
<!-- 300 -->
<g id="node1" class="node"><title>300</title>
<path fill="#fffacd" stroke="black" d="M100,-17C100,-17 246.288,-17 246.288,-17 252.288,-17 258.288,-23 258.288,-29 258.288,-29 258.288,-49 258.288,-49 258.288,-55 252.288,-61 246.288,-61 246.288,-61 100,-61 100,-61 94,-61 88,-55 88,-49 88,-49 88,-29 88,-29 88,-23 94,-17 100,-17"/>
<text text-anchor="start" x="96" y="-45.8" font-family="Times,serif" font-size="14.00">GET http://google.com</text>
<polyline fill="none" stroke="black" points="88,-39 258.288,-39 "/>
<text text-anchor="end" x="140.393" y="-23.8" font-family="Times,serif" font-size="14.00">@0.138</text>
<polyline fill="none" stroke="black" points="148.393,-17 148.393,-39 "/>
<text text-anchor="end" x="187.893" y="-23.8" font-family="Times,serif" font-size="14.00">0.154</text>
<polyline fill="none" stroke="black" points="195.893,-17 195.893,-39 "/>
<text text-anchor="end" x="250.288" y="-23.8" font-family="Times,serif" font-size="14.00">+10.516</text>
</g>
<!-- sink_301 -->
<g id="node4" class="node"><title>sink_301</title>
<ellipse fill="#ffe0e0" stroke="black" cx="316.288" cy="-70" rx="18" ry="18"/>
<ellipse fill="none" stroke="black" cx="316.288" cy="-70" rx="22" ry="22"/>
<text text-anchor="middle" x="316.288" y="-65.8" font-family="Times,serif" font-size="14.00"> </text>
</g>
<!-- 300&#45;&gt;sink_301 -->
<g id="edge2" class="edge"><title>300&#45;&gt;sink_301</title>
<path fill="none" stroke="black" stroke-dasharray="5,2" d="M258.479,-57.4805C267.804,-59.5 276.805,-61.4494 284.817,-63.1844"/>
<polygon fill="black" stroke="black" points="284.208,-66.6337 294.722,-65.3296 285.69,-59.7923 284.208,-66.6337"/>
</g>
<!-- 101000 -->
<g id="node2" class="node"><title>101000</title>
<path fill="#e0ffe0" stroke="black" d="M100,-80C100,-80 246.288,-80 246.288,-80 252.288,-80 258.288,-86 258.288,-92 258.288,-92 258.288,-112 258.288,-112 258.288,-118 252.288,-124 246.288,-124 246.288,-124 100,-124 100,-124 94,-124 88,-118 88,-112 88,-112 88,-92 88,-92 88,-86 94,-80 100,-80"/>
<text text-anchor="start" x="96" y="-108.8" font-family="Times,serif" font-size="14.00">timeoutTimer</text>
<polyline fill="none" stroke="black" points="88,-102 258.288,-102 "/>
<text text-anchor="end" x="147.393" y="-86.8" font-family="Times,serif" font-size="14.00">@10.594</text>
<polyline fill="none" stroke="black" points="155.393,-80 155.393,-102 "/>
<text text-anchor="end" x="194.893" y="-86.8" font-family="Times,serif" font-size="14.00">0.073</text>
<polyline fill="none" stroke="black" points="202.893,-80 202.893,-102 "/>
<text text-anchor="end" x="250.288" y="-86.8" font-family="Times,serif" font-size="14.00">+0.076</text>
</g>
<!-- 101000&#45;&gt;sink_301 -->
<g id="edge4" class="edge"><title>101000&#45;&gt;sink_301</title>
<path fill="none" stroke="black" d="M258.479,-82.9234C267.804,-80.8387 276.805,-78.8265 284.817,-77.0355"/>
<polygon fill="black" stroke="black" points="285.727,-80.4185 294.722,-74.821 284.2,-73.5871 285.727,-80.4185"/>
</g>
<!-- source_301 -->
<g id="node3" class="node"><title>source_301</title>
<ellipse fill="lightgrey" stroke="black" cx="34" cy="-70" rx="18" ry="18"/>
<text text-anchor="middle" x="34" y="-65.8" font-family="Times,serif" font-size="14.00"> </text>
</g>
<!-- source_301&#45;&gt;300 -->
<g id="edge1" class="edge"><title>source_301&#45;&gt;300</title>
<path fill="none" stroke="black" d="M51.6227,-66.0738C58.9932,-64.4317 68.171,-62.387 78.159,-60.1618"/>
<polygon fill="black" stroke="black" points="78.9512,-63.5712 87.9507,-57.9803 77.4289,-56.7387 78.9512,-63.5712"/>
</g>
<!-- source_301&#45;&gt;101000 -->
<g id="edge3" class="edge"><title>source_301&#45;&gt;101000</title>
<path fill="none" stroke="black" d="M51.6227,-74.0528C58.9932,-75.7479 68.171,-77.8586 78.159,-80.1556"/>
<polygon fill="black" stroke="black" points="77.4207,-83.5771 87.9507,-82.4075 78.9896,-76.7552 77.4207,-83.5771"/>
</g>
</g>
</svg>
